<mxfile host="65bd71144e">
    <diagram name="Page-1" id="CL5JDApW0YQvWiSPC0La">
        <mxGraphModel dx="594" dy="468" grid="0" gridSize="10" guides="1" tooltips="1" connect="1" arrows="1" fold="1" page="1" pageScale="1" pageWidth="900" pageHeight="1600" math="0" shadow="0">
            <root>
                <mxCell id="0"/>
                <mxCell id="1" parent="0"/>
                <mxCell id="uXKpA5WeMLEmbCpdPesY-55" value="&lt;div&gt;&amp;lt;&amp;lt; interface &amp;gt;&amp;gt;&lt;/div&gt;&lt;div&gt;Reservavel&lt;br&gt;&lt;/div&gt;" style="swimlane;fontStyle=0;childLayout=stackLayout;horizontal=1;startSize=44;fillColor=none;horizontalStack=0;resizeParent=1;resizeParentMax=0;resizeLast=0;collapsible=1;marginBottom=0;whiteSpace=wrap;html=1;" parent="1" vertex="1">
                    <mxGeometry x="754" y="13" width="140" height="122" as="geometry"/>
                </mxCell>
                <mxCell id="uXKpA5WeMLEmbCpdPesY-56" value="+ field: type" style="text;strokeColor=none;fillColor=none;align=left;verticalAlign=top;spacingLeft=4;spacingRight=4;overflow=hidden;rotatable=0;points=[[0,0.5],[1,0.5]];portConstraint=eastwest;whiteSpace=wrap;html=1;" parent="uXKpA5WeMLEmbCpdPesY-55" vertex="1">
                    <mxGeometry y="44" width="140" height="26" as="geometry"/>
                </mxCell>
                <mxCell id="uXKpA5WeMLEmbCpdPesY-57" value="+ field: type" style="text;strokeColor=none;fillColor=none;align=left;verticalAlign=top;spacingLeft=4;spacingRight=4;overflow=hidden;rotatable=0;points=[[0,0.5],[1,0.5]];portConstraint=eastwest;whiteSpace=wrap;html=1;" parent="uXKpA5WeMLEmbCpdPesY-55" vertex="1">
                    <mxGeometry y="70" width="140" height="26" as="geometry"/>
                </mxCell>
                <mxCell id="uXKpA5WeMLEmbCpdPesY-58" value="+ field: type" style="text;strokeColor=none;fillColor=none;align=left;verticalAlign=top;spacingLeft=4;spacingRight=4;overflow=hidden;rotatable=0;points=[[0,0.5],[1,0.5]];portConstraint=eastwest;whiteSpace=wrap;html=1;" parent="uXKpA5WeMLEmbCpdPesY-55" vertex="1">
                    <mxGeometry y="96" width="140" height="26" as="geometry"/>
                </mxCell>
                <mxCell id="uXKpA5WeMLEmbCpdPesY-64" value="Agencia" style="swimlane;fontStyle=1;align=center;verticalAlign=top;childLayout=stackLayout;horizontal=1;startSize=26;horizontalStack=0;resizeParent=1;resizeParentMax=0;resizeLast=0;collapsible=1;marginBottom=0;whiteSpace=wrap;html=1;" parent="1" vertex="1">
                    <mxGeometry x="18" y="13" width="452" height="175" as="geometry"/>
                </mxCell>
                <mxCell id="uXKpA5WeMLEmbCpdPesY-65" value="&lt;div&gt;+ usuarios: List&amp;lt;Usuarios&amp;gt;&lt;/div&gt;&lt;div&gt;+ pacotes: Map&amp;lt;PlanoPacote, PacoteViagem&amp;gt;&lt;br&gt;&lt;/div&gt;&lt;div&gt;&lt;br&gt;&lt;/div&gt;" style="text;strokeColor=none;fillColor=none;align=left;verticalAlign=top;spacingLeft=4;spacingRight=4;overflow=hidden;rotatable=0;points=[[0,0.5],[1,0.5]];portConstraint=eastwest;whiteSpace=wrap;html=1;" parent="uXKpA5WeMLEmbCpdPesY-64" vertex="1">
                    <mxGeometry y="26" width="452" height="68" as="geometry"/>
                </mxCell>
                <mxCell id="uXKpA5WeMLEmbCpdPesY-66" value="" style="line;strokeWidth=1;fillColor=none;align=left;verticalAlign=middle;spacingTop=-1;spacingLeft=3;spacingRight=3;rotatable=0;labelPosition=right;points=[];portConstraint=eastwest;strokeColor=inherit;" parent="uXKpA5WeMLEmbCpdPesY-64" vertex="1">
                    <mxGeometry y="94" width="452" height="8" as="geometry"/>
                </mxCell>
                <mxCell id="uXKpA5WeMLEmbCpdPesY-67" value="&lt;div&gt;+ buscarPacotePorDestino(String destino): PacoteViagem&lt;/div&gt;&lt;div&gt;+ buscarPacotePorPreco(int valor): PacoteViagem&lt;/div&gt;&lt;div&gt;+ buscarPacotePorCategoria(CategoriaPacote categoria): PacoteViagem&lt;/div&gt;&lt;div&gt;+ adicionarPacote(PacoteViagem pacote, Usuario usuario): boolean&lt;br&gt;&lt;/div&gt;" style="text;strokeColor=none;fillColor=none;align=left;verticalAlign=top;spacingLeft=4;spacingRight=4;overflow=hidden;rotatable=0;points=[[0,0.5],[1,0.5]];portConstraint=eastwest;whiteSpace=wrap;html=1;" parent="uXKpA5WeMLEmbCpdPesY-64" vertex="1">
                    <mxGeometry y="102" width="452" height="73" as="geometry"/>
                </mxCell>
                <mxCell id="8AvutQKZImkA7h08carh-3" value="" style="group" parent="1" vertex="1" connectable="0">
                    <mxGeometry x="12" y="340" width="483" height="395" as="geometry"/>
                </mxCell>
                <mxCell id="8AvutQKZImkA7h08carh-1" value="" style="shape=folder;fontStyle=1;spacingTop=10;tabWidth=84;tabHeight=19;tabPosition=left;html=1;whiteSpace=wrap;" parent="8AvutQKZImkA7h08carh-3" vertex="1">
                    <mxGeometry x="2.5" y="2.5" width="483" height="390" as="geometry"/>
                </mxCell>
                <mxCell id="8AvutQKZImkA7h08carh-2" value="destinos" style="text;whiteSpace=wrap;html=1;" parent="8AvutQKZImkA7h08carh-3" vertex="1">
                    <mxGeometry x="16" width="52" height="24" as="geometry"/>
                </mxCell>
                <mxCell id="8AvutQKZImkA7h08carh-14" value="&lt;div&gt;&amp;lt;&amp;lt; enum &amp;gt;&amp;gt;&lt;/div&gt;&lt;div&gt;Categorias&lt;br&gt;&lt;/div&gt;" style="swimlane;fontStyle=0;childLayout=stackLayout;horizontal=1;startSize=36;fillColor=none;horizontalStack=0;resizeParent=1;resizeParentMax=0;resizeLast=0;collapsible=1;marginBottom=0;whiteSpace=wrap;html=1;" parent="8AvutQKZImkA7h08carh-3" vertex="1">
                    <mxGeometry x="20" y="44" width="140" height="114" as="geometry"/>
                </mxCell>
                <mxCell id="8AvutQKZImkA7h08carh-15" value="&lt;div align=&quot;center&quot;&gt;Aventura&lt;/div&gt;" style="text;strokeColor=none;fillColor=none;align=center;verticalAlign=top;spacingLeft=4;spacingRight=4;overflow=hidden;rotatable=0;points=[[0,0.5],[1,0.5]];portConstraint=eastwest;whiteSpace=wrap;html=1;" parent="8AvutQKZImkA7h08carh-14" vertex="1">
                    <mxGeometry y="36" width="140" height="26" as="geometry"/>
                </mxCell>
                <mxCell id="8AvutQKZImkA7h08carh-16" value="&lt;div align=&quot;center&quot;&gt;Cultura&lt;/div&gt;" style="text;strokeColor=none;fillColor=none;align=center;verticalAlign=top;spacingLeft=4;spacingRight=4;overflow=hidden;rotatable=0;points=[[0,0.5],[1,0.5]];portConstraint=eastwest;whiteSpace=wrap;html=1;" parent="8AvutQKZImkA7h08carh-14" vertex="1">
                    <mxGeometry y="62" width="140" height="26" as="geometry"/>
                </mxCell>
                <mxCell id="8AvutQKZImkA7h08carh-17" value="&lt;div align=&quot;center&quot;&gt;Relaxamento&lt;/div&gt;" style="text;strokeColor=none;fillColor=none;align=center;verticalAlign=top;spacingLeft=4;spacingRight=4;overflow=hidden;rotatable=0;points=[[0,0.5],[1,0.5]];portConstraint=eastwest;whiteSpace=wrap;html=1;" parent="8AvutQKZImkA7h08carh-14" vertex="1">
                    <mxGeometry y="88" width="140" height="26" as="geometry"/>
                </mxCell>
                <mxCell id="8AvutQKZImkA7h08carh-22" value="Destino" style="swimlane;fontStyle=1;align=center;verticalAlign=top;childLayout=stackLayout;horizontal=1;startSize=26;horizontalStack=0;resizeParent=1;resizeParentMax=0;resizeLast=0;collapsible=1;marginBottom=0;whiteSpace=wrap;html=1;" parent="8AvutQKZImkA7h08carh-3" vertex="1">
                    <mxGeometry x="189.5" y="44" width="160" height="97" as="geometry"/>
                </mxCell>
                <mxCell id="8AvutQKZImkA7h08carh-23" value="&lt;div&gt;+ nome: String&lt;/div&gt;&lt;div&gt;+ duracao: String&lt;/div&gt;&lt;div&gt;+ preco: String&lt;br&gt;&lt;/div&gt;" style="text;strokeColor=none;fillColor=none;align=left;verticalAlign=top;spacingLeft=4;spacingRight=4;overflow=hidden;rotatable=0;points=[[0,0.5],[1,0.5]];portConstraint=eastwest;whiteSpace=wrap;html=1;" parent="8AvutQKZImkA7h08carh-22" vertex="1">
                    <mxGeometry y="26" width="160" height="63" as="geometry"/>
                </mxCell>
                <mxCell id="8AvutQKZImkA7h08carh-24" value="" style="line;strokeWidth=1;fillColor=none;align=left;verticalAlign=middle;spacingTop=-1;spacingLeft=3;spacingRight=3;rotatable=0;labelPosition=right;points=[];portConstraint=eastwest;strokeColor=inherit;" parent="8AvutQKZImkA7h08carh-22" vertex="1">
                    <mxGeometry y="89" width="160" height="8" as="geometry"/>
                </mxCell>
                <mxCell id="8AvutQKZImkA7h08carh-10" value="" style="group" parent="1" vertex="1" connectable="0">
                    <mxGeometry x="594" y="342" width="483" height="393" as="geometry"/>
                </mxCell>
                <mxCell id="8AvutQKZImkA7h08carh-8" value="" style="shape=folder;fontStyle=1;spacingTop=10;tabWidth=84;tabHeight=19;tabPosition=left;html=1;whiteSpace=wrap;" parent="8AvutQKZImkA7h08carh-10" vertex="1">
                    <mxGeometry y="3" width="483" height="390" as="geometry"/>
                </mxCell>
                <mxCell id="8AvutQKZImkA7h08carh-9" value="&lt;div&gt;forms&lt;/div&gt;" style="text;whiteSpace=wrap;html=1;" parent="8AvutQKZImkA7h08carh-10" vertex="1">
                    <mxGeometry x="17" width="52" height="24" as="geometry"/>
                </mxCell>
                <mxCell id="8AvutQKZImkA7h08carh-30" value="Reserva" style="swimlane;fontStyle=1;align=center;verticalAlign=top;childLayout=stackLayout;horizontal=1;startSize=26;horizontalStack=0;resizeParent=1;resizeParentMax=0;resizeLast=0;collapsible=1;marginBottom=0;whiteSpace=wrap;html=1;" parent="8AvutQKZImkA7h08carh-10" vertex="1">
                    <mxGeometry x="26" y="44" width="201" height="94" as="geometry"/>
                </mxCell>
                <mxCell id="8AvutQKZImkA7h08carh-31" value="&lt;div&gt;+ usuario: Usuario&lt;/div&gt;&lt;div&gt;+ destino: Destino&lt;/div&gt;&lt;div&gt;+ criacao: LocalDate {readOnly}&lt;/div&gt;" style="text;strokeColor=none;fillColor=none;align=left;verticalAlign=top;spacingLeft=4;spacingRight=4;overflow=hidden;rotatable=0;points=[[0,0.5],[1,0.5]];portConstraint=eastwest;whiteSpace=wrap;html=1;" parent="8AvutQKZImkA7h08carh-30" vertex="1">
                    <mxGeometry y="26" width="201" height="60" as="geometry"/>
                </mxCell>
                <mxCell id="8AvutQKZImkA7h08carh-32" value="" style="line;strokeWidth=1;fillColor=none;align=left;verticalAlign=middle;spacingTop=-1;spacingLeft=3;spacingRight=3;rotatable=0;labelPosition=right;points=[];portConstraint=eastwest;strokeColor=inherit;" parent="8AvutQKZImkA7h08carh-30" vertex="1">
                    <mxGeometry y="86" width="201" height="8" as="geometry"/>
                </mxCell>
                <mxCell id="8AvutQKZImkA7h08carh-39" value="" style="group" parent="1" vertex="1" connectable="0">
                    <mxGeometry x="1137" y="340" width="512" height="778.9725984251968" as="geometry"/>
                </mxCell>
                <mxCell id="8AvutQKZImkA7h08carh-12" value="" style="shape=folder;fontStyle=1;spacingTop=10;tabWidth=84;tabHeight=19;tabPosition=left;html=1;whiteSpace=wrap;" parent="8AvutQKZImkA7h08carh-39" vertex="1">
                    <mxGeometry y="3" width="483" height="463" as="geometry"/>
                </mxCell>
                <mxCell id="8AvutQKZImkA7h08carh-13" value="&lt;div&gt;usuarios&lt;/div&gt;" style="text;whiteSpace=wrap;html=1;" parent="8AvutQKZImkA7h08carh-39" vertex="1">
                    <mxGeometry x="14" width="52" height="24" as="geometry"/>
                </mxCell>
                <mxCell id="36" value="Usuario" style="swimlane;fontStyle=1;align=center;verticalAlign=top;childLayout=stackLayout;horizontal=1;startSize=26;horizontalStack=0;resizeParent=1;resizeParentMax=0;resizeLast=0;collapsible=1;marginBottom=0;" parent="8AvutQKZImkA7h08carh-39" vertex="1">
                    <mxGeometry x="14" y="39" width="283" height="201" as="geometry"/>
                </mxCell>
                <mxCell id="37" value="+ cpf: String&#10;+ nome: String&#10;+ login: String&#10;+ senha: String&#10;+ email: String&#10;+ pacotesViagem: List&lt;PacoteViagem&gt;&#10;+ tipoPacote: String&#10;" style="text;strokeColor=none;fillColor=none;align=left;verticalAlign=top;spacingLeft=4;spacingRight=4;overflow=hidden;rotatable=0;points=[[0,0.5],[1,0.5]];portConstraint=eastwest;" parent="36" vertex="1">
                    <mxGeometry y="26" width="283" height="107" as="geometry"/>
                </mxCell>
                <mxCell id="38" value="" style="line;strokeWidth=1;fillColor=none;align=left;verticalAlign=middle;spacingTop=-1;spacingLeft=3;spacingRight=3;rotatable=0;labelPosition=right;points=[];portConstraint=eastwest;strokeColor=inherit;" parent="36" vertex="1">
                    <mxGeometry y="133" width="283" height="8" as="geometry"/>
                </mxCell>
                <mxCell id="39" value="+ adicionarPacote(PacoteViagem pacote): void&#10;+ deletarConta(): void&#10;+ editarDado(): void" style="text;strokeColor=none;fillColor=none;align=left;verticalAlign=top;spacingLeft=4;spacingRight=4;overflow=hidden;rotatable=0;points=[[0,0.5],[1,0.5]];portConstraint=eastwest;" parent="36" vertex="1">
                    <mxGeometry y="141" width="283" height="60" as="geometry"/>
                </mxCell>
                <mxCell id="60" style="edgeStyle=none;html=1;entryX=0.491;entryY=1.006;entryDx=0;entryDy=0;entryPerimeter=0;" parent="8AvutQKZImkA7h08carh-39" source="56" target="39" edge="1">
                    <mxGeometry relative="1" as="geometry"/>
                </mxCell>
                <mxCell id="56" value="Admin" style="swimlane;fontStyle=1;align=center;verticalAlign=top;childLayout=stackLayout;horizontal=1;startSize=26;horizontalStack=0;resizeParent=1;resizeParentMax=0;resizeLast=0;collapsible=1;marginBottom=0;" parent="8AvutQKZImkA7h08carh-39" vertex="1">
                    <mxGeometry x="38.5" y="277" width="234" height="94" as="geometry"/>
                </mxCell>
                <mxCell id="58" value="" style="line;strokeWidth=1;fillColor=none;align=left;verticalAlign=middle;spacingTop=-1;spacingLeft=3;spacingRight=3;rotatable=0;labelPosition=right;points=[];portConstraint=eastwest;strokeColor=inherit;" parent="56" vertex="1">
                    <mxGeometry y="26" width="234" height="8" as="geometry"/>
                </mxCell>
                <mxCell id="59" value="+ adicionarUsuario(Usuario usuario): void&#10;+ editarUsuario(int id): void" style="text;strokeColor=none;fillColor=none;align=left;verticalAlign=top;spacingLeft=4;spacingRight=4;overflow=hidden;rotatable=0;points=[[0,0.5],[1,0.5]];portConstraint=eastwest;" parent="56" vertex="1">
                    <mxGeometry y="34" width="234" height="60" as="geometry"/>
                </mxCell>
                <mxCell id="8AvutQKZImkA7h08carh-48" value="" style="group" parent="1" vertex="1" connectable="0">
                    <mxGeometry x="28" y="841" width="734" height="683" as="geometry"/>
                </mxCell>
                <mxCell id="8AvutQKZImkA7h08carh-43" value="" style="shape=folder;fontStyle=1;spacingTop=10;tabWidth=110;tabHeight=21;tabPosition=left;html=1;whiteSpace=wrap;" parent="8AvutQKZImkA7h08carh-48" vertex="1">
                    <mxGeometry y="6.934010152284264" width="734" height="676.0659898477157" as="geometry"/>
                </mxCell>
                <mxCell id="8AvutQKZImkA7h08carh-44" value="pacotes_viagem&lt;br&gt;" style="text;whiteSpace=wrap;html=1;" parent="8AvutQKZImkA7h08carh-48" vertex="1">
                    <mxGeometry x="6.003355048859937" y="3" width="62.162866449511405" height="41.59856603773585" as="geometry"/>
                </mxCell>
                <mxCell id="8AvutQKZImkA7h08carh-40" value="" style="group" parent="8AvutQKZImkA7h08carh-48" vertex="1" connectable="0">
                    <mxGeometry x="84.88000000000011" y="69" width="549" height="585" as="geometry"/>
                </mxCell>
                <mxCell id="uXKpA5WeMLEmbCpdPesY-46" value="" style="group" parent="8AvutQKZImkA7h08carh-40" vertex="1" connectable="0">
                    <mxGeometry width="549" height="281" as="geometry"/>
                </mxCell>
                <mxCell id="uXKpA5WeMLEmbCpdPesY-18" value="&lt;div&gt;&amp;lt;&amp;lt; abstract &amp;gt;&amp;gt;&lt;br&gt;&lt;/div&gt;&lt;div&gt;PacoteViagem&lt;/div&gt;" style="swimlane;fontStyle=1;align=center;verticalAlign=top;childLayout=stackLayout;horizontal=1;startSize=40;horizontalStack=0;resizeParent=1;resizeParentMax=0;resizeLast=0;collapsible=1;marginBottom=0;whiteSpace=wrap;html=1;" parent="uXKpA5WeMLEmbCpdPesY-46" vertex="1">
                    <mxGeometry x="170.5" width="209" height="190" as="geometry"/>
                </mxCell>
                <mxCell id="uXKpA5WeMLEmbCpdPesY-19" value="&lt;div&gt;+ tipoPacote: PlanoPacote&lt;br&gt;&lt;/div&gt;&lt;div&gt;+ valorPacote: int&lt;/div&gt;&lt;div&gt;+ destino: String&lt;/div&gt;&lt;div&gt;+ atividadesInclusas: String&lt;/div&gt;&lt;div&gt;+ datasDisponiveis: LocalDate&lt;br&gt;&lt;/div&gt;&lt;div&gt;+ usuario: Usuario&lt;/div&gt;" style="text;strokeColor=none;fillColor=none;align=left;verticalAlign=top;spacingLeft=4;spacingRight=4;overflow=hidden;rotatable=0;points=[[0,0.5],[1,0.5]];portConstraint=eastwest;whiteSpace=wrap;html=1;" parent="uXKpA5WeMLEmbCpdPesY-18" vertex="1">
                    <mxGeometry y="40" width="209" height="96" as="geometry"/>
                </mxCell>
                <mxCell id="uXKpA5WeMLEmbCpdPesY-20" value="" style="line;strokeWidth=1;fillColor=none;align=left;verticalAlign=middle;spacingTop=-1;spacingLeft=3;spacingRight=3;rotatable=0;labelPosition=right;points=[];portConstraint=eastwest;strokeColor=inherit;" parent="uXKpA5WeMLEmbCpdPesY-18" vertex="1">
                    <mxGeometry y="136" width="209" height="8" as="geometry"/>
                </mxCell>
                <mxCell id="uXKpA5WeMLEmbCpdPesY-21" value="&lt;div&gt;+ buscarUsuario(String cpf): Usuario&lt;/div&gt;" style="text;strokeColor=none;fillColor=none;align=left;verticalAlign=top;spacingLeft=4;spacingRight=4;overflow=hidden;rotatable=0;points=[[0,0.5],[1,0.5]];portConstraint=eastwest;whiteSpace=wrap;html=1;" parent="uXKpA5WeMLEmbCpdPesY-18" vertex="1">
                    <mxGeometry y="144" width="209" height="46" as="geometry"/>
                </mxCell>
                <mxCell id="uXKpA5WeMLEmbCpdPesY-26" value="PacotePremium" style="swimlane;fontStyle=1;align=center;verticalAlign=top;childLayout=stackLayout;horizontal=1;startSize=26;horizontalStack=0;resizeParent=1;resizeParentMax=0;resizeLast=0;collapsible=1;marginBottom=0;whiteSpace=wrap;html=1;" parent="uXKpA5WeMLEmbCpdPesY-46" vertex="1">
                    <mxGeometry y="329" width="160" height="86" as="geometry"/>
                </mxCell>
                <mxCell id="uXKpA5WeMLEmbCpdPesY-27" value="+ field: type" style="text;strokeColor=none;fillColor=none;align=left;verticalAlign=top;spacingLeft=4;spacingRight=4;overflow=hidden;rotatable=0;points=[[0,0.5],[1,0.5]];portConstraint=eastwest;whiteSpace=wrap;html=1;" parent="uXKpA5WeMLEmbCpdPesY-26" vertex="1">
                    <mxGeometry y="26" width="160" height="26" as="geometry"/>
                </mxCell>
                <mxCell id="uXKpA5WeMLEmbCpdPesY-28" value="" style="line;strokeWidth=1;fillColor=none;align=left;verticalAlign=middle;spacingTop=-1;spacingLeft=3;spacingRight=3;rotatable=0;labelPosition=right;points=[];portConstraint=eastwest;strokeColor=inherit;" parent="uXKpA5WeMLEmbCpdPesY-26" vertex="1">
                    <mxGeometry y="52" width="160" height="8" as="geometry"/>
                </mxCell>
                <mxCell id="uXKpA5WeMLEmbCpdPesY-29" value="+ method(type): type" style="text;strokeColor=none;fillColor=none;align=left;verticalAlign=top;spacingLeft=4;spacingRight=4;overflow=hidden;rotatable=0;points=[[0,0.5],[1,0.5]];portConstraint=eastwest;whiteSpace=wrap;html=1;" parent="uXKpA5WeMLEmbCpdPesY-26" vertex="1">
                    <mxGeometry y="60" width="160" height="26" as="geometry"/>
                </mxCell>
                <mxCell id="uXKpA5WeMLEmbCpdPesY-30" value="PacoteBasico" style="swimlane;fontStyle=1;align=center;verticalAlign=top;childLayout=stackLayout;horizontal=1;startSize=26;horizontalStack=0;resizeParent=1;resizeParentMax=0;resizeLast=0;collapsible=1;marginBottom=0;whiteSpace=wrap;html=1;" parent="uXKpA5WeMLEmbCpdPesY-46" vertex="1">
                    <mxGeometry x="195" y="329" width="160" height="86" as="geometry"/>
                </mxCell>
                <mxCell id="uXKpA5WeMLEmbCpdPesY-31" value="+ field: type" style="text;strokeColor=none;fillColor=none;align=left;verticalAlign=top;spacingLeft=4;spacingRight=4;overflow=hidden;rotatable=0;points=[[0,0.5],[1,0.5]];portConstraint=eastwest;whiteSpace=wrap;html=1;" parent="uXKpA5WeMLEmbCpdPesY-30" vertex="1">
                    <mxGeometry y="26" width="160" height="26" as="geometry"/>
                </mxCell>
                <mxCell id="uXKpA5WeMLEmbCpdPesY-32" value="" style="line;strokeWidth=1;fillColor=none;align=left;verticalAlign=middle;spacingTop=-1;spacingLeft=3;spacingRight=3;rotatable=0;labelPosition=right;points=[];portConstraint=eastwest;strokeColor=inherit;" parent="uXKpA5WeMLEmbCpdPesY-30" vertex="1">
                    <mxGeometry y="52" width="160" height="8" as="geometry"/>
                </mxCell>
                <mxCell id="uXKpA5WeMLEmbCpdPesY-33" value="+ method(type): type" style="text;strokeColor=none;fillColor=none;align=left;verticalAlign=top;spacingLeft=4;spacingRight=4;overflow=hidden;rotatable=0;points=[[0,0.5],[1,0.5]];portConstraint=eastwest;whiteSpace=wrap;html=1;" parent="uXKpA5WeMLEmbCpdPesY-30" vertex="1">
                    <mxGeometry y="60" width="160" height="26" as="geometry"/>
                </mxCell>
                <mxCell id="uXKpA5WeMLEmbCpdPesY-34" value="PacoteLite" style="swimlane;fontStyle=1;align=center;verticalAlign=top;childLayout=stackLayout;horizontal=1;startSize=26;horizontalStack=0;resizeParent=1;resizeParentMax=0;resizeLast=0;collapsible=1;marginBottom=0;whiteSpace=wrap;html=1;" parent="uXKpA5WeMLEmbCpdPesY-46" vertex="1">
                    <mxGeometry x="389" y="329" width="160" height="86" as="geometry"/>
                </mxCell>
                <mxCell id="uXKpA5WeMLEmbCpdPesY-35" value="+ field: type" style="text;strokeColor=none;fillColor=none;align=left;verticalAlign=top;spacingLeft=4;spacingRight=4;overflow=hidden;rotatable=0;points=[[0,0.5],[1,0.5]];portConstraint=eastwest;whiteSpace=wrap;html=1;" parent="uXKpA5WeMLEmbCpdPesY-34" vertex="1">
                    <mxGeometry y="26" width="160" height="26" as="geometry"/>
                </mxCell>
                <mxCell id="uXKpA5WeMLEmbCpdPesY-36" value="" style="line;strokeWidth=1;fillColor=none;align=left;verticalAlign=middle;spacingTop=-1;spacingLeft=3;spacingRight=3;rotatable=0;labelPosition=right;points=[];portConstraint=eastwest;strokeColor=inherit;" parent="uXKpA5WeMLEmbCpdPesY-34" vertex="1">
                    <mxGeometry y="52" width="160" height="8" as="geometry"/>
                </mxCell>
                <mxCell id="uXKpA5WeMLEmbCpdPesY-37" value="+ method(type): type" style="text;strokeColor=none;fillColor=none;align=left;verticalAlign=top;spacingLeft=4;spacingRight=4;overflow=hidden;rotatable=0;points=[[0,0.5],[1,0.5]];portConstraint=eastwest;whiteSpace=wrap;html=1;" parent="uXKpA5WeMLEmbCpdPesY-34" vertex="1">
                    <mxGeometry y="60" width="160" height="26" as="geometry"/>
                </mxCell>
                <mxCell id="uXKpA5WeMLEmbCpdPesY-45" style="edgeStyle=orthogonalEdgeStyle;rounded=0;orthogonalLoop=1;jettySize=auto;html=1;exitX=0.5;exitY=0;exitDx=0;exitDy=0;entryX=0.502;entryY=1;entryDx=0;entryDy=0;entryPerimeter=0;" parent="uXKpA5WeMLEmbCpdPesY-46" source="uXKpA5WeMLEmbCpdPesY-26" target="uXKpA5WeMLEmbCpdPesY-21" edge="1">
                    <mxGeometry relative="1" as="geometry">
                        <mxPoint x="563" y="213" as="targetPoint"/>
                    </mxGeometry>
                </mxCell>
                <mxCell id="uXKpA5WeMLEmbCpdPesY-43" style="edgeStyle=orthogonalEdgeStyle;rounded=0;orthogonalLoop=1;jettySize=auto;html=1;exitX=0.5;exitY=0;exitDx=0;exitDy=0;entryX=0.5;entryY=1;entryDx=0;entryDy=0;" parent="uXKpA5WeMLEmbCpdPesY-46" source="uXKpA5WeMLEmbCpdPesY-30" target="uXKpA5WeMLEmbCpdPesY-18" edge="1">
                    <mxGeometry relative="1" as="geometry"/>
                </mxCell>
                <mxCell id="uXKpA5WeMLEmbCpdPesY-44" style="edgeStyle=orthogonalEdgeStyle;rounded=0;orthogonalLoop=1;jettySize=auto;html=1;exitX=0.5;exitY=0;exitDx=0;exitDy=0;entryX=0.499;entryY=1.003;entryDx=0;entryDy=0;entryPerimeter=0;" parent="uXKpA5WeMLEmbCpdPesY-46" source="uXKpA5WeMLEmbCpdPesY-34" target="uXKpA5WeMLEmbCpdPesY-21" edge="1">
                    <mxGeometry relative="1" as="geometry"/>
                </mxCell>
                <mxCell id="uXKpA5WeMLEmbCpdPesY-59" value="&lt;div&gt;&amp;lt;&amp;lt; enum &amp;gt;&amp;gt;&lt;/div&gt;CategoriaDestino" style="swimlane;fontStyle=0;childLayout=stackLayout;horizontal=1;startSize=50;fillColor=none;horizontalStack=0;resizeParent=1;resizeParentMax=0;resizeLast=0;collapsible=1;marginBottom=0;whiteSpace=wrap;html=1;" parent="8AvutQKZImkA7h08carh-40" vertex="1">
                    <mxGeometry x="400" y="439" width="140" height="146" as="geometry"/>
                </mxCell>
                <mxCell id="uXKpA5WeMLEmbCpdPesY-60" value="&lt;div align=&quot;center&quot;&gt;Praia&lt;/div&gt;&lt;div align=&quot;center&quot;&gt;Montanha&lt;/div&gt;&lt;div align=&quot;center&quot;&gt;Metropole&lt;/div&gt;&lt;div align=&quot;center&quot;&gt;Deserto&lt;/div&gt;Tropical" style="text;strokeColor=none;fillColor=none;align=center;verticalAlign=top;spacingLeft=4;spacingRight=4;overflow=hidden;rotatable=0;points=[[0,0.5],[1,0.5]];portConstraint=eastwest;whiteSpace=wrap;html=1;" parent="uXKpA5WeMLEmbCpdPesY-59" vertex="1">
                    <mxGeometry y="50" width="140" height="96" as="geometry"/>
                </mxCell>
                <mxCell id="uXKpA5WeMLEmbCpdPesY-22" value="&lt;div&gt;&amp;lt;&amp;lt; enum &amp;gt;&amp;gt;&lt;/div&gt;&lt;div&gt;PlanoPacote&lt;br&gt;&lt;/div&gt;" style="swimlane;fontStyle=0;childLayout=stackLayout;horizontal=1;startSize=45;fillColor=none;horizontalStack=0;resizeParent=1;resizeParentMax=0;resizeLast=0;collapsible=1;marginBottom=0;whiteSpace=wrap;html=1;" parent="8AvutQKZImkA7h08carh-40" vertex="1">
                    <mxGeometry x="9" y="439" width="140" height="110" as="geometry"/>
                </mxCell>
                <mxCell id="uXKpA5WeMLEmbCpdPesY-24" value="&lt;div align=&quot;center&quot;&gt;Premium&lt;/div&gt;&lt;div align=&quot;center&quot;&gt;Basico&lt;/div&gt;&lt;div align=&quot;center&quot;&gt;Lite&lt;br&gt;&lt;/div&gt;" style="text;strokeColor=none;fillColor=none;align=center;verticalAlign=top;spacingLeft=4;spacingRight=4;overflow=hidden;rotatable=0;points=[[0,0.5],[1,0.5]];portConstraint=eastwest;whiteSpace=wrap;html=1;" parent="uXKpA5WeMLEmbCpdPesY-22" vertex="1">
                    <mxGeometry y="45" width="140" height="65" as="geometry"/>
                </mxCell>
                <mxCell id="uXKpA5WeMLEmbCpdPesY-72" value="&lt;div&gt;&amp;lt;&amp;lt; enum &amp;gt;&amp;gt;&lt;/div&gt;&lt;div&gt;TipoPacote&lt;br&gt;&lt;/div&gt;" style="swimlane;fontStyle=0;childLayout=stackLayout;horizontal=1;startSize=51;fillColor=none;horizontalStack=0;resizeParent=1;resizeParentMax=0;resizeLast=0;collapsible=1;marginBottom=0;whiteSpace=wrap;html=1;" parent="8AvutQKZImkA7h08carh-40" vertex="1">
                    <mxGeometry x="211" y="439" width="140" height="110" as="geometry"/>
                </mxCell>
                <mxCell id="uXKpA5WeMLEmbCpdPesY-73" value="&lt;div align=&quot;center&quot;&gt;Aventura&lt;/div&gt;&lt;div align=&quot;center&quot;&gt;Relaxamento&lt;/div&gt;&lt;div align=&quot;center&quot;&gt;Cultura&lt;br&gt;&lt;/div&gt;" style="text;strokeColor=none;fillColor=none;align=center;verticalAlign=top;spacingLeft=4;spacingRight=4;overflow=hidden;rotatable=0;points=[[0,0.5],[1,0.5]];portConstraint=eastwest;whiteSpace=wrap;html=1;" parent="uXKpA5WeMLEmbCpdPesY-72" vertex="1">
                    <mxGeometry y="51" width="140" height="59" as="geometry"/>
                </mxCell>
                <mxCell id="3" value="" style="group" parent="1" vertex="1" connectable="0">
                    <mxGeometry x="9" y="1726" width="902" height="817" as="geometry"/>
                </mxCell>
                <mxCell id="4" value="&lt;span style=&quot;color: rgba(0, 0, 0, 0); font-family: monospace; font-size: 0px; font-weight: 400; text-align: start;&quot;&gt;%3CmxGraphModel%3E%3Croot%3E%3CmxCell%20id%3D%220%22%2F%3E%3CmxCell%20id%3D%221%22%20parent%3D%220%22%2F%3E%3CmxCell%20id%3D%222%22%20value%3D%22UserConectionImpl%22%20style%3D%22swimlane%3BfontStyle%3D1%3Balign%3Dcenter%3BverticalAlign%3Dtop%3BchildLayout%3DstackLayout%3Bhorizontal%3D1%3BstartSize%3D29%3BhorizontalStack%3D0%3BresizeParent%3D1%3BresizeParentMax%3D0%3BresizeLast%3D0%3Bcollapsible%3D1%3BmarginBottom%3D0%3B%22%20vertex%3D%221%22%20parent%3D%221%22%3E%3CmxGeometry%20x%3D%22972%22%20y%3D%221408.9962204724409%22%20width%3D%22326%22%20height%3D%22297.9763779527559%22%20as%3D%22geometry%22%2F%3E%3C%2FmxCell%3E%3CmxCell%20id%3D%223%22%20value%3D%22%2B%20conexao%3A%20Connection%26%2310%3B%2B%20dados%3A%20Map%26lt%3BString%2C%20String%26gt%3B%26%2310%3B%2B%20destinos%3A%20Map%26lt%3BString%2C%20String%26gt%3B%22%20style%3D%22text%3BstrokeColor%3Dnone%3BfillColor%3Dnone%3Balign%3Dleft%3BverticalAlign%3Dtop%3BspacingLeft%3D4%3BspacingRight%3D4%3Boverflow%3Dhidden%3Brotatable%3D0%3Bpoints%3D%5B%5B0%2C0.5%5D%2C%5B1%2C0.5%5D%5D%3BportConstraint%3Deastwest%3B%22%20vertex%3D%221%22%20parent%3D%222%22%3E%3CmxGeometry%20y%3D%2229%22%20width%3D%22326%22%20height%3D%2297.00787401574803%22%20as%3D%22geometry%22%2F%3E%3C%2FmxCell%3E%3CmxCell%20id%3D%224%22%20value%3D%22%22%20style%3D%22line%3BstrokeWidth%3D1%3BfillColor%3Dnone%3Balign%3Dleft%3BverticalAlign%3Dmiddle%3BspacingTop%3D-1%3BspacingLeft%3D3%3BspacingRight%3D3%3Brotatable%3D0%3BlabelPosition%3Dright%3Bpoints%3D%5B%5D%3BportConstraint%3Deastwest%3BstrokeColor%3Dinherit%3B%22%20vertex%3D%221%22%20parent%3D%222%22%3E%3CmxGeometry%20y%3D%22126.00787401574803%22%20width%3D%22326%22%20height%3D%2211.758530183727034%22%20as%3D%22geometry%22%2F%3E%3C%2FmxCell%3E%3CmxCell%20id%3D%225%22%20value%3D%22%2B%20consultarDados()%3A%20Map%26lt%3BString%2C%20String%26gt%3B%26%2310%3B%2B%20consultarDestinos()%3A%20Map%26lt%3BString%2C%20String%26gt%3B%C2%A0%26%2310%3B%2B%20criarUsuario(Usuario%20usuario)%3A%20void%26%2310%3B%2B%20removerUsuario(int%20id)%3A%20void%26%2310%3B%2B%20editarUsuario(int%20id%2C%20String%20campo%2C%20String%20dado)%3A%20void%26%2310%3B%2B%20listarUsuarios()%3A%20List%26lt%3BUsuario%26gt%3B%22%20style%3D%22text%3BstrokeColor%3Dnone%3BfillColor%3Dnone%3Balign%3Dleft%3BverticalAlign%3Dtop%3BspacingLeft%3D4%3BspacingRight%3D4%3Boverflow%3Dhidden%3Brotatable%3D0%3Bpoints%3D%5B%5B0%2C0.5%5D%2C%5B1%2C0.5%5D%5D%3BportConstraint%3Deastwest%3B%22%20vertex%3D%221%22%20parent%3D%222%22%3E%3CmxGeometry%20y%3D%22137.76640419947506%22%20width%3D%22326%22%20height%3D%22160.20997375328085%22%20as%3D%22geometry%22%2F%3E%3C%2FmxCell%3E%3CmxCell%20id%3D%226%22%20value%3D%22%26lt%3B%26lt%3B%20interface%20%26gt%3B%26gt%3B%26%2310%3BUserConectionImpl%22%20style%3D%22swimlane%3BfontStyle%3D1%3Balign%3Dcenter%3BverticalAlign%3Dtop%3BchildLayout%3DstackLayout%3Bhorizontal%3D1%3BstartSize%3D46%3BhorizontalStack%3D0%3BresizeParent%3D1%3BresizeParentMax%3D0%3BresizeLast%3D0%3Bcollapsible%3D1%3BmarginBottom%3D0%3B%22%20vertex%3D%221%22%20parent%3D%221%22%3E%3CmxGeometry%20x%3D%22969%22%20y%3D%221011.9962204724409%22%20width%3D%22326%22%20height%3D%22314.9763779527559%22%20as%3D%22geometry%22%2F%3E%3C%2FmxCell%3E%3CmxCell%20id%3D%227%22%20value%3D%22conexao%3A%20Connection%26%2310%3Bdados%3A%20Map%26lt%3BString%2C%20String%26gt%3B%26%2310%3Bdestinos%3A%20Map%26lt%3BString%2C%20String%26gt%3B%22%20style%3D%22text%3BstrokeColor%3Dnone%3BfillColor%3Dnone%3Balign%3Dleft%3BverticalAlign%3Dtop%3BspacingLeft%3D4%3BspacingRight%3D4%3Boverflow%3Dhidden%3Brotatable%3D0%3Bpoints%3D%5B%5B0%2C0.5%5D%2C%5B1%2C0.5%5D%5D%3BportConstraint%3Deastwest%3B%22%20vertex%3D%221%22%20parent%3D%226%22%3E%3CmxGeometry%20y%3D%2246%22%20width%3D%22326%22%20height%3D%2297.00787401574803%22%20as%3D%22geometry%22%2F%3E%3C%2FmxCell%3E%3CmxCell%20id%3D%228%22%20value%3D%22%22%20style%3D%22line%3BstrokeWidth%3D1%3BfillColor%3Dnone%3Balign%3Dleft%3BverticalAlign%3Dmiddle%3BspacingTop%3D-1%3BspacingLeft%3D3%3BspacingRight%3D3%3Brotatable%3D0%3BlabelPosition%3Dright%3Bpoints%3D%5B%5D%3BportConstraint%3Deastwest%3BstrokeColor%3Dinherit%3B%22%20vertex%3D%221%22%20parent%3D%226%22%3E%3CmxGeometry%20y%3D%22143.00787401574803%22%20width%3D%22326%22%20height%3D%2211.758530183727034%22%20as%3D%22geometry%22%2F%3E%3C%2FmxCell%3E%3CmxCell%20id%3D%229%22%20value%3D%22consultarDados()%3A%20Map%26lt%3BString%2C%20String%26gt%3B%26%2310%3BconsultarDestinos()%3A%20Map%26lt%3BString%2C%20String%26gt%3B%C2%A0%26%2310%3BcriarUsuario(Usuario%20usuario)%3A%20void%26%2310%3BremoverUsuario(int%20id)%3A%20void%26%2310%3BeditarUsuario(int%20id%2C%20String%20campo%2C%20String%20dado)%3A%20void%26%2310%3BlistarUsuarios()%3A%20List%26lt%3BUsuario%26gt%3B%22%20style%3D%22text%3BstrokeColor%3Dnone%3BfillColor%3Dnone%3Balign%3Dleft%3BverticalAlign%3Dtop%3BspacingLeft%3D4%3BspacingRight%3D4%3Boverflow%3Dhidden%3Brotatable%3D0%3Bpoints%3D%5B%5B0%2C0.5%5D%2C%5B1%2C0.5%5D%5D%3BportConstraint%3Deastwest%3B%22%20vertex%3D%221%22%20parent%3D%226%22%3E%3CmxGeometry%20y%3D%22154.76640419947506%22%20width%3D%22326%22%20height%3D%22160.20997375328085%22%20as%3D%22geometry%22%2F%3E%3C%2FmxCell%3E%3CmxCell%20id%3D%2210%22%20value%3D%22%22%20style%3D%22endArrow%3Dblock%3Bdashed%3D1%3BendFill%3D0%3BendSize%3D12%3Bhtml%3D1%3BentryX%3D0.513%3BentryY%3D1.005%3BentryDx%3D0%3BentryDy%3D0%3BentryPerimeter%3D0%3BexitX%3D0.5%3BexitY%3D0%3BexitDx%3D0%3BexitDy%3D0%3B%22%20edge%3D%221%22%20source%3D%222%22%20target%3D%229%22%20parent%3D%221%22%3E%3CmxGeometry%20width%3D%22160%22%20relative%3D%221%22%20as%3D%22geometry%22%3E%3CmxPoint%20x%3D%22128%22%20y%3D%22639%22%20as%3D%22sourcePoint%22%2F%3E%3CmxPoint%20x%3D%22288%22%20y%3D%22639%22%20as%3D%22targetPoint%22%2F%3E%3C%2FmxGeometry%3E%3C%2FmxCell%3E%3C%2Froot%3E%3C%2FmxGraphModel%3E&lt;/span&gt;" style="shape=folder;fontStyle=1;spacingTop=10;tabWidth=110;tabHeight=21;tabPosition=left;html=1;whiteSpace=wrap;" parent="3" vertex="1">
                    <mxGeometry y="5.69" width="902" height="811.31" as="geometry"/>
                </mxCell>
                <mxCell id="5" value="conexao" style="text;whiteSpace=wrap;html=1;" parent="3" vertex="1">
                    <mxGeometry x="29.003355048859937" y="3.2796486090775976" width="62.162866449511405" height="34.107169811320745" as="geometry"/>
                </mxCell>
                <mxCell id="48" value="UserConectionImpl" style="swimlane;fontStyle=1;align=center;verticalAlign=top;childLayout=stackLayout;horizontal=1;startSize=29;horizontalStack=0;resizeParent=1;resizeParentMax=0;resizeLast=0;collapsible=1;marginBottom=0;" parent="3" vertex="1">
                    <mxGeometry x="23" y="489.99622047244094" width="326" height="297.9763779527559" as="geometry"/>
                </mxCell>
                <mxCell id="49" value="+ conexao: Connection&#10;+ dados: Map&lt;String, String&gt;&#10;+ destinos: Map&lt;String, String&gt;" style="text;strokeColor=none;fillColor=none;align=left;verticalAlign=top;spacingLeft=4;spacingRight=4;overflow=hidden;rotatable=0;points=[[0,0.5],[1,0.5]];portConstraint=eastwest;" parent="48" vertex="1">
                    <mxGeometry y="29" width="326" height="97.00787401574803" as="geometry"/>
                </mxCell>
                <mxCell id="50" value="" style="line;strokeWidth=1;fillColor=none;align=left;verticalAlign=middle;spacingTop=-1;spacingLeft=3;spacingRight=3;rotatable=0;labelPosition=right;points=[];portConstraint=eastwest;strokeColor=inherit;" parent="48" vertex="1">
                    <mxGeometry y="126.00787401574803" width="326" height="11.758530183727034" as="geometry"/>
                </mxCell>
                <mxCell id="51" value="+ consultarDados(): Map&lt;String, String&gt;&#10;+ consultarDestinos(): Map&lt;String, String&gt; &#10;+ criarUsuario(Usuario usuario): void&#10;+ removerUsuario(String cpf): void&#10;+ editarUsuario(int id, String campo, String dado): void&#10;+ listarUsuarios(): List&lt;Usuario&gt;" style="text;strokeColor=none;fillColor=none;align=left;verticalAlign=top;spacingLeft=4;spacingRight=4;overflow=hidden;rotatable=0;points=[[0,0.5],[1,0.5]];portConstraint=eastwest;" parent="48" vertex="1">
                    <mxGeometry y="137.76640419947506" width="326" height="160.20997375328085" as="geometry"/>
                </mxCell>
                <mxCell id="65" value="&lt;&lt; interface &gt;&gt;&#10;UserConectionImpl" style="swimlane;fontStyle=1;align=center;verticalAlign=top;childLayout=stackLayout;horizontal=1;startSize=46;horizontalStack=0;resizeParent=1;resizeParentMax=0;resizeLast=0;collapsible=1;marginBottom=0;" parent="3" vertex="1">
                    <mxGeometry x="20" y="92.99622047244088" width="326" height="314.9763779527559" as="geometry"/>
                </mxCell>
                <mxCell id="66" value="conexao: Connection&#10;dados: Map&lt;String, String&gt;&#10;destinos: Map&lt;String, String&gt;" style="text;strokeColor=none;fillColor=none;align=left;verticalAlign=top;spacingLeft=4;spacingRight=4;overflow=hidden;rotatable=0;points=[[0,0.5],[1,0.5]];portConstraint=eastwest;" parent="65" vertex="1">
                    <mxGeometry y="46" width="326" height="97.00787401574803" as="geometry"/>
                </mxCell>
                <mxCell id="67" value="" style="line;strokeWidth=1;fillColor=none;align=left;verticalAlign=middle;spacingTop=-1;spacingLeft=3;spacingRight=3;rotatable=0;labelPosition=right;points=[];portConstraint=eastwest;strokeColor=inherit;" parent="65" vertex="1">
                    <mxGeometry y="143.00787401574803" width="326" height="11.758530183727034" as="geometry"/>
                </mxCell>
                <mxCell id="68" value="consultarDados(): Map&lt;String, String&gt;&#10;consultarDestinos(): Map&lt;String, String&gt; &#10;criarUsuario(Usuario usuario): void&#10;removerUsuario(int id): void&#10;editarUsuario(int id, String campo, String dado): void&#10;listarUsuarios(): List&lt;Usuario&gt;" style="text;strokeColor=none;fillColor=none;align=left;verticalAlign=top;spacingLeft=4;spacingRight=4;overflow=hidden;rotatable=0;points=[[0,0.5],[1,0.5]];portConstraint=eastwest;" parent="65" vertex="1">
                    <mxGeometry y="154.76640419947506" width="326" height="160.20997375328085" as="geometry"/>
                </mxCell>
                <mxCell id="70" value="" style="endArrow=block;dashed=1;endFill=0;endSize=12;html=1;entryX=0.513;entryY=1.005;entryDx=0;entryDy=0;entryPerimeter=0;exitX=0.5;exitY=0;exitDx=0;exitDy=0;" parent="3" source="48" target="68" edge="1">
                    <mxGeometry width="160" relative="1" as="geometry">
                        <mxPoint x="128" y="639" as="sourcePoint"/>
                        <mxPoint x="288" y="639" as="targetPoint"/>
                    </mxGeometry>
                </mxCell>
                <mxCell id="75" value="ConexaoImpl" style="swimlane;fontStyle=1;align=center;verticalAlign=top;childLayout=stackLayout;horizontal=1;startSize=29;horizontalStack=0;resizeParent=1;resizeParentMax=0;resizeLast=0;collapsible=1;marginBottom=0;" parent="3" vertex="1">
                    <mxGeometry x="492" y="357.9962204724409" width="326" height="130.99853018372704" as="geometry"/>
                </mxCell>
                <mxCell id="76" value="+ conexao = null: Connection" style="text;strokeColor=none;fillColor=none;align=left;verticalAlign=top;spacingLeft=4;spacingRight=4;overflow=hidden;rotatable=0;points=[[0,0.5],[1,0.5]];portConstraint=eastwest;" parent="75" vertex="1">
                    <mxGeometry y="29" width="326" height="49" as="geometry"/>
                </mxCell>
                <mxCell id="77" value="" style="line;strokeWidth=1;fillColor=none;align=left;verticalAlign=middle;spacingTop=-1;spacingLeft=3;spacingRight=3;rotatable=0;labelPosition=right;points=[];portConstraint=eastwest;strokeColor=inherit;" parent="75" vertex="1">
                    <mxGeometry y="78" width="326" height="11.758530183727034" as="geometry"/>
                </mxCell>
                <mxCell id="78" value="+ encerrarConexao(): void" style="text;strokeColor=none;fillColor=none;align=left;verticalAlign=top;spacingLeft=4;spacingRight=4;overflow=hidden;rotatable=0;points=[[0,0.5],[1,0.5]];portConstraint=eastwest;" parent="75" vertex="1">
                    <mxGeometry y="89.75853018372703" width="326" height="41.24" as="geometry"/>
                </mxCell>
                <mxCell id="79" value="&lt;&lt; interface &gt;&gt;&#10;Conexao" style="swimlane;fontStyle=1;align=center;verticalAlign=top;childLayout=stackLayout;horizontal=1;startSize=46;horizontalStack=0;resizeParent=1;resizeParentMax=0;resizeLast=0;collapsible=1;marginBottom=0;" parent="3" vertex="1">
                    <mxGeometry x="489" y="92.99622047244088" width="326" height="147.98853018372702" as="geometry"/>
                </mxCell>
                <mxCell id="80" value="connection = null: Connection" style="text;strokeColor=none;fillColor=none;align=left;verticalAlign=top;spacingLeft=4;spacingRight=4;overflow=hidden;rotatable=0;points=[[0,0.5],[1,0.5]];portConstraint=eastwest;" parent="79" vertex="1">
                    <mxGeometry y="46" width="326" height="49" as="geometry"/>
                </mxCell>
                <mxCell id="81" value="" style="line;strokeWidth=1;fillColor=none;align=left;verticalAlign=middle;spacingTop=-1;spacingLeft=3;spacingRight=3;rotatable=0;labelPosition=right;points=[];portConstraint=eastwest;strokeColor=inherit;" parent="79" vertex="1">
                    <mxGeometry y="95" width="326" height="11.758530183727034" as="geometry"/>
                </mxCell>
                <mxCell id="82" value="encerrarConexao()" style="text;strokeColor=none;fillColor=none;align=left;verticalAlign=top;spacingLeft=4;spacingRight=4;overflow=hidden;rotatable=0;points=[[0,0.5],[1,0.5]];portConstraint=eastwest;" parent="79" vertex="1">
                    <mxGeometry y="106.75853018372703" width="326" height="41.23" as="geometry"/>
                </mxCell>
                <mxCell id="83" value="" style="endArrow=block;dashed=1;endFill=0;endSize=12;html=1;entryX=0.513;entryY=1.005;entryDx=0;entryDy=0;entryPerimeter=0;exitX=0.5;exitY=0;exitDx=0;exitDy=0;" parent="3" source="75" target="82" edge="1">
                    <mxGeometry width="160" relative="1" as="geometry">
                        <mxPoint x="-465" y="-275" as="sourcePoint"/>
                        <mxPoint x="-305" y="-275" as="targetPoint"/>
                    </mxGeometry>
                </mxCell>
            </root>
        </mxGraphModel>
    </diagram>
</mxfile>